PathFileType	4	(X/Y/Z)	Kaydara																																																																																																																									
DataRate	CameraRate	NumFrames	NumMarkers	Units	OrigDataRate	OrigDataStartFrame	OrigNumFrames																																																																																																																					
30	30	6	41	mm	30	40	158																																																																																																																					
Frame#	Time	NABA_LFHD			NABA_RFHD			NABA_LBHD			NABA_RBHD			NABA_LFTShould			NABA_RFTShould			NABA_LRRShould			NABA_RRRShould			NABA_T10			NABA_STRN			NABA_TRUN			NABA_LSHO			NABA_LUPA			NABA_LELB			NABA_LFRM			NABA_LWRA			NABA_LWRB			NABA_LFIN			NABA_RSHO			NABA_RUPA			NABA_RELB			NABA_RFRM			NABA_RWRA			NABA_RWRB			NABA_RFIN			NABA_LFWT			NABA_RFWT			NABA_LBWT			NABA_RBWT			NABA_LTHI			NABA_LKNE			NABA_LSHN			NABA_LANK			NABA_LHEE			NABA_LTOE			NABA_RTHI			NABA_RKNE			NABA_RSHN			NABA_RANK			NABA_RHEE			NABA_RTOE		
		X1	Y1	Z1	X2	Y2	Z2	X3	Y3	Z3	X4	Y4	Z4	X5	Y5	Z5	X6	Y6	Z6	X7	Y7	Z7	X8	Y8	Z8	X9	Y9	Z9	X10	Y10	Z10	X11	Y11	Z11	X12	Y12	Z12	X13	Y13	Z13	X14	Y14	Z14	X15	Y15	Z15	X16	Y16	Z16	X17	Y17	Z17	X18	Y18	Z18	X19	Y19	Z19	X20	Y20	Z20	X21	Y21	Z21	X22	Y22	Z22	X23	Y23	Z23	X24	Y24	Z24	X25	Y25	Z25	X26	Y26	Z26	X27	Y27	Z27	X28	Y28	Z28	X29	Y29	Z29	X30	Y30	Z30	X31	Y31	Z31	X32	Y32	Z32	X33	Y33	Z33	X34	Y34	Z34	X35	Y35	Z35	X36	Y36	Z36	X37	Y37	Z37	X38	Y38	Z38	X39	Y39	Z39	X40	Y40	Z40	X41	Y41	Z41
																																																																																																																												
40	1.31	265.70118	1611.98212	-1795.0415	96.01337	1596.11801	-1768.56857	280.28708	1567.0932	-1913.64044	63.46539	1566.5921	-1860.66986	259.32098	1326.38794	-1790.37674	112.3395	1307.64618	-1792.58621	262.53132	1386.81488	-1910.17365	109.42993	1380.88837	-1903.00995	198.82454	1223.14476	-1985.38269	194.1869	1265.41336	-1745.56091	198.6949	1164.87595	-1703.31268	357.38586	1351.6745	-1841.67908	412.60635	1116.6555	-1904.21524	419.25758	1029.13925	-1889.94919	413.31081	966.903	-1928.1015	369.09679	802.61307	-1895.02228	440.36346	808.54454	-1892.1431	420.31101	736.46523	-1871.22787	28.5711	1341.51154	-1838.34152	-11.03757	1156.16676	-1947.0961	-56.78961	1036.91879	-1930.79819	-61.77735	938.44467	-1927.8096	-1.15145	813.46458	-1850.5098	-75.29807	802.55623	-1855.45349	-63.88904	769.71848	-1819.19693	328.15502	930.37033	-1830.66437	62.18074	926.08994	-1822.89017	274.81892	1006.39236	-1986.96381	105.00793	1035.43457	-1980.27939	324.02958	658.2933	-2014.68369	316.92163	502.29774	-1981.7041	259.87265	307.38796	-1987.72736	283.4873	168.09214	-2077.26273	225.31048	130.36667	-2139.37866	249.13822	80.97272	-1970.3775	54.93626	668.43407	-2006.21048	64.46082	492.66785	-1921.51489	64.60704	327.53353	-1975.52124	50.53648	153.03831	-2076.49628	92.82415	115.06353	-2150.24338	68.07308	82.18801	-1975.40787
41	1.343	268.62234	1615.6749	-1779.94934	99.04911	1600.1503	-1753.15201	283.1518	1569.40002	-1897.96524	66.34593	1569.57901	-1844.99893	262.65936	1329.74503	-1774.35318	115.20025	1310.53818	-1778.2605	266.48821	1390.89081	-1893.27805	113.63209	1384.77036	-1888.36563	205.07923	1228.0114	-1970.8432	196.64307	1268.51135	-1730.94559	201.17952	1167.56813	-1689.80347	360.91896	1355.84152	-1824.3158	417.58987	1120.88875	-1886.32614	424.52034	1033.79906	-1872.05368	419.39865	970.9214	-1909.66843	373.73646	807.05475	-1877.67822	445.02121	812.82234	-1872.29126	423.14255	740.34561	-1852.81677	31.67448	1344.72916	-1826.31592	-3.12426	1165.54489	-1943.35007	-51.21433	1046.09543	-1934.71405	-56.67741	947.38609	-1936.34003	-1.81374	818.20274	-1860.62424	-75.78754	808.75214	-1871.59424	-67.98306	775.72853	-1835.14023	334.61346	933.06152	-1821.85516	69.05431	929.43253	-1810.58334	279.47426	1011.88026	-1976.03241	109.99063	1041.01959	-1966.85974	327.93682	664.54201	-2010.36743	320.76054	508.02284	-1980.41153	263.84348	313.92595	-1986.74042	286.36354	174.42791	-2076.26602	227.843	137.49987	-2137.60956	251.18031	81.49761	-1969.04144	57.73278	672.73209	-1994.08478	67.35757	496.72527	-1909.65134	66.62476	332.10117	-1966.21796	52.39003	160.06329	-2071.60904	94.85323	124.59779	-2145.87631	68.7459	82.61988	-1972.67975
42	1.377	271.15311	1620.36713	-1763.43231	101.5986	1604.7937	-1736.68686	285.81844	1573.56659	-1881.23703	68.9472	1573.79395	-1828.3757	265.41546	1333.95737	-1758.50906	118.2913	1314.51981	-1763.79913	270.1334	1396.60995	-1876.09421	117.35061	1390.09674	-1872.80716	210.76893	1234.5993	-1956.37924	199.55908	1272.43347	-1716.33987	204.28581	1171.14471	-1676.14456	364.1214	1361.42258	-1807.17407	423.29819	1126.55006	-1868.00873	429.86404	1039.47128	-1853.85147	424.92519	975.54283	-1890.46951	377.57664	812.80098	-1855.41885	449.06326	817.98698	-1849.76074	426.49738	746.26701	-1828.8443	34.84346	1348.26416	-1813.50861	4.67369	1175.43243	-1937.84607	-46.27039	1056.93146	-1937.76993	-52.77344	958.54988	-1944.90265	-2.28667	824.53102	-1874.1423	-76.32679	817.05688	-1888.52066	-69.98466	781.78535	-1853.83789	340.18982	937.17552	-1813.31818	74.90471	934.10812	-1798.07114	283.58629	1018.12614	-1964.98886	113.76196	1046.95595	-1954.44321	330.65258	670.91827	-2003.86093	323.44177	514.23183	-1975.94986	266.31811	320.4002	-1982.99606	287.72453	181.47751	-2073.00552	228.63165	145.71834	-2134.28345	252.17041	82.39493	-1967.01218	59.45775	677.25761	-1980.03326	71.65635	501.92837	-1895.08102	70.26164	337.67582	-1955.38254	54.75949	168.19305	-2064.33334	96.66794	135.69029	-2139.7049	70.50552	83.32443	-1968.647
43	1.41	273.71037	1624.17313	-1745.72311	103.96502	1608.79181	-1718.79517	288.07667	1578.0423	-1863.71185	71.26083	1578.46832	-1810.62531	267.92423	1338.31665	-1743.4613	121.68852	1318.18649	-1749.51721	272.7709	1402.59979	-1859.29993	120.68457	1395.336	-1857.94159	215.63122	1240.97618	-1942.59064	202.5511	1276.20827	-1701.49368	207.69468	1174.3148	-1662.46414	366.35902	1367.55051	-1791.1174	428.86494	1133.62328	-1850.50201	435.04261	1046.44089	-1837.36435	429.39854	980.28244	-1871.7569	382.00302	819.42719	-1827.7507	453.6071	824.35112	-1824.55093	430.86704	753.81638	-1799.65134	38.45362	1353.09052	-1800.53192	11.29823	1188.14041	-1932.56256	-41.42799	1070.32669	-1939.58679	-49.93948	973.3905	-1953.69629	-3.23486	833.97957	-1890.26459	-77.24544	828.66028	-1906.94397	-70.91531	789.93179	-1874.55688	344.50737	941.09184	-1803.42636	79.78705	939.29504	-1784.6019	286.83941	1023.72696	-1953.2579	117.17607	1052.91977	-1940.09964	332.73674	676.548	-1996.7868	326.28109	519.45793	-1969.43756	269.06733	325.73402	-1977.58331	289.9733	187.66319	-2068.9209	230.99783	153.52554	-2130.64117	253.41068	83.34046	-1964.91913	62.06147	683.33702	-1966.48712	75.23445	507.51598	-1881.56555	73.69717	343.11775	-1944.42215	58.03664	176.18954	-2057.14508	99.99964	146.44449	-2133.43903	73.06836	85.37987	-1964.41589
44	1.443	275.87652	1626.91971	-1726.74301	105.91599	1611.04492	-1699.9379	290.14767	1582.22092	-1845.10696	73.36222	1581.74149	-1792.00073	270.91665	1341.74988	-1729.13666	124.18862	1320.94147	-1735.73318	274.9221	1406.47583	-1844.67514	124.1537	1399.15497	-1843.8237	219.46381	1244.73564	-1927.85629	205.61047	1280.09857	-1687.05338	211.10395	1178.03841	-1648.39005	368.74569	1372.18445	-1777.28714	432.56161	1139.48692	-1836.30859	440.20344	1052.12082	-1824.38202	432.72667	982.97363	-1854.46777	386.75446	826.31081	-1795.3801	458.52638	830.37285	-1797.73941	437.13669	762.02911	-1766.56296	42.01965	1357.92007	-1788.80798	17.21618	1201.30569	-1926.94504	-37.46005	1084.99908	-1942.44293	-46.83184	989.36256	-1962.73911	-4.5837	845.48836	-1908.40744	-78.57735	842.39487	-1927.59399	-72.78463	800.71327	-1897.14401	348.91075	943.76823	-1792.54578	84.65099	942.31537	-1769.93027	289.07118	1028.40355	-1940.63858	119.45887	1057.6059	-1924.89105	335.37632	681.55762	-1988.67889	329.72221	524.15955	-1962.44873	272.5178	330.29701	-1972.02805	292.74235	193.28016	-2065.05554	233.68582	160.64518	-2126.93649	254.80692	84.09352	-1962.85431	64.13572	687.49702	-1953.34961	79.7839	511.32381	-1869.47205	77.69913	347.57057	-1934.44992	61.08982	182.17941	-2049.67148	102.64904	154.53429	-2126.81839	76.15051	87.28666	-1959.56863
45	1.477	278.05302	1627.96692	-1707.03476	107.7829	1611.81152	-1680.31555	292.08899	1584.99481	-1825.87769	75.28479	1583.8327	-1772.55295	273.43386	1343.65524	-1714.35013	125.96061	1323.33359	-1721.05988	276.74742	1408.42865	-1829.77325	126.72521	1401.62323	-1828.89832	222.01555	1246.95053	-1912.64557	208.0983	1282.84363	-1672.4501	214.13233	1180.70213	-1634.07974	371.11427	1374.30939	-1763.84506	434.51706	1142.02896	-1825.66879	445.46066	1055.09888	-1811.86615	436.469	983.02292	-1836.67953	392.68116	833.14247	-1762.54837	463.31875	834.80522	-1769.50516	444.3911	770.81558	-1730.72464	44.55903	1360.71716	-1775.9668	23.02689	1212.73453	-1920.42953	-34.28295	1098.62701	-1944.45511	-44.55545	1005.32646	-1972.12967	-6.51978	856.60721	-1928.69919	-79.15117	856.37123	-1949.9025	-76.37176	813.23936	-1922.50031	352.61719	945.29053	-1780.15381	89.88811	943.12386	-1755.21774	290.57102	1031.78848	-1926.61469	120.93807	1060.29434	-1908.41888	338.08201	685.80696	-1980.20813	332.75066	527.78156	-1955.54382	275.63786	334.06246	-1967.10403	295.75335	198.04548	-2061.5007	236.97819	166.54785	-2123.6998	256.34203	84.44364	-1961.10474	66.32899	691.07231	-1940.11978	83.69589	513.39893	-1858.43857	81.57757	351.25858	-1926.76651	63.92689	187.54004	-2044.10278	105.48882	162.50631	-2121.57669	77.8346	86.50493	-1957.4234
